<svg width="64" height="10" viewBox="0 0 64 10" fill="none" xmlns="http://www.w3.org/2000/svg">
<path d="M56.1237 3.19075C56.1237 2.28849 56.1237 1.44706 56.1237 0.595488C56.1237 0.0210171 56.3269 -0.137807 56.7333 0.119015C59.0684 1.6194 61.4036 3.12992 63.7388 4.64044C63.8417 4.70126 63.9129 4.83306 64 4.93443C63.9129 5.02567 63.8417 5.14733 63.7467 5.20815C61.3719 6.74908 58.9972 8.27988 56.6224 9.81068C56.5987 9.83095 56.5749 9.84109 56.5512 9.85123C56.1633 10.0945 56.1237 10.0743 56.1237 9.52682C56.1237 8.72594 56.1237 7.91492 56.1237 7.11404C56.1237 6.99239 56.1237 6.8606 56.1237 6.67812H55.633C38.2023 6.67812 20.7716 6.67812 3.34889 6.67812C2.34358 6.67812 1.33827 6.67812 0.325039 6.67812C0.0796486 6.67812 -0.00742558 6.58688 0.000490251 6.26247C0.0163219 5.35008 0.00840608 4.44782 0.000490251 3.53543C0.000490251 3.26171 0.0717327 3.16033 0.28546 3.18061C0.491272 3.20088 0.697083 3.18061 0.902895 3.18061C19.1489 3.18061 37.3949 3.18061 55.6409 3.18061H56.1158L56.1237 3.19075Z" fill="#363635"/>
</svg>
